# xmcd
#
# Track frame offsets: 
#        182
#        20270
#        43217
#        58600
#        75247
#        96197
#        116117
#        132367
#        155427
#        173467
#        190417
#        201227
#
# Disc length: 2996 seconds
#
# Revision: 3
# Processed by: cddbd v1.5.2PL0 Copyright (c) Steve Scherf et al.
# Submitted via: ExactAudioCopyFreeDBPlugin 1.0
#
DISCID=9a0bb20c
DTITLE=Jovanotti - Giovani Jovanotti
DYEAR=1990
DGENRE=Hip-Hop
TTITLE0=Gente della notte
TTITLE1=I numeri
TTITLE2=C'è bisogno di te
TTITLE3=Giovane sempre
TTITLE4=Ciao mamma
TTITLE5=Diritti e doveri
TTITLE6=Sceriffo o bandito
TTITLE7=Volo
TTITLE8=Only you
TTITLE9=Never let me go
TTITLE10=Saluti a chi (i crediti)
TTITLE11=Theme from cowboy
EXTD=Jovanotti - 2 for 1\nLA MIA MOTO - GIOVANI JOVANOTTI\nUPC: (SET) 
EXTD=0602527103372\n(P) 2009 Universal Music Italia S.r.l.\n(C) 2009 U
EXTD=niversal Music Italia S.r.l.\n\nCD 2 - Giovani Jovanotti\n\nYear:
EXTD=1990\nLabel: Mercury - Universal Music Group\nEAN: 526 685 2 - 0
EXTD=0731452668523\n\nInfo:\nTutte le tracce sono accreditate a Jovano
EXTD=tti\n\n(P) 1990 Universal Music Italia S.r.l.\n(C) 1990 Universal
EXTD=Music Italia S.r.l.
EXTT0=
EXTT1=
EXTT2=
EXTT3=
EXTT4=
EXTT5=
EXTT6=
EXTT7=
EXTT8=
EXTT9=
EXTT10=
EXTT11=
PLAYORDER=
